<?xml version="1.0" encoding="iso-8859-1"?>
<!-- Generator: Adobe Illustrator 19.0.0, SVG Export Plug-In . SVG Version: 6.00 Build 0)  -->
<svg version="1.1" id="Layer_1" xmlns="http://www.w3.org/2000/svg" xmlns:xlink="http://www.w3.org/1999/xlink" x="0px" y="0px"
	 viewBox="0 0 473.935 473.935" style="enable-background:new 0 0 473.935 473.935;" xml:space="preserve">
<circle style="fill:#49A0AE;" cx="236.967" cy="236.967" r="236.967"/>
<g>
	<path style="fill:#E1E1E1;" d="M256.631,256.75c-6.125-11.334-11.671-21.699-14.567-27.45c5.437-12.681,7.162-21.657,12.591-34.32
		c-22.612-43.423-45.231-86.869-67.842-130.289c-21.815,18.23-38.896,46.267-22.698,90.057l68.273,118.181
		C232.387,272.93,260.11,251.19,256.631,256.75z M226.06,218.199c-6.065,0-10.986-4.917-10.986-10.986
		c0-6.069,4.917-10.986,10.986-10.986c6.08,0,10.986,4.913,10.986,10.986C237.046,213.278,232.141,218.199,226.06,218.199z"/>
	<path style="fill:#E1E1E1;" d="M263.231,193.203l-2.406,5.635c-4.004,9.332-6.724,19.076-10.305,28.572
		c1.126,2.17,2.26,4.326,3.413,6.481l1.003-0.688l46.043-79.689c16.187-43.783-0.876-71.831-22.69-90.057l-41.324,79.318
		l23.439,44.999L263.231,193.203z"/>
</g>
<g>
	<path style="fill:#2C6973;" d="M347.489,298.842c-7.439-13.83-18.294-24.359-29.833-30.189
		c-13.104-6.627-27.259-7.469-39.364-0.973c-5.927,3.188-10.649,7.753-14.125,13.317c-17.788,36.621,2.069,61.747,2.069,61.747
		c0.73,1.343,1.489,2.653,2.279,3.925l1.534,2.657l0.079-0.135c7.091,10.574,16.224,18.716,25.848,23.585
		c13.104,6.634,27.259,7.476,39.356,0.973c12.093-6.511,19.207-18.802,20.909-33.407
		C357.734,327.519,354.935,312.675,347.489,298.842z M328.772,337.202c-0.666,5.729-2.892,10.245-6.518,12.213
		c-3.648,1.946-8.666,1.317-13.833-1.31c-6.724-3.401-13.235-9.871-17.919-18.623c-4.692-8.726-6.503-17.744-5.628-25.272
		c0.666-5.736,2.885-10.245,6.526-12.191c3.626-1.964,8.659-1.321,13.818,1.295c6.724,3.405,13.227,9.875,17.934,18.615
		C327.844,320.656,329.652,329.666,328.772,337.202z"/>
	<path style="fill:#2C6973;" d="M124.313,340.338c1.703,14.6,8.812,26.896,20.909,33.407c12.093,6.503,26.252,5.665,39.356-0.973
		c9.624-4.868,18.761-13.01,25.848-23.584l0.079,0.135l1.534-2.657c0.797-1.272,1.557-2.578,2.279-3.925
		c0,0,19.858-25.126,2.069-61.747c-3.472-5.56-8.198-10.129-14.125-13.317c-12.093-6.496-26.252-5.654-39.356,0.973
		c-11.547,5.833-22.398,16.359-29.833,30.189C125.619,312.675,122.828,327.519,124.313,340.338z M157.402,311.93
		c4.715-8.741,11.21-15.207,17.934-18.615c5.167-2.612,10.196-3.259,13.818-1.295c3.641,1.946,5.867,6.455,6.526,12.191
		c0.876,7.528-0.935,16.546-5.62,25.272c-4.692,8.752-11.203,15.218-17.927,18.623c-5.16,2.623-10.181,3.252-13.833,1.31
		c-3.618-1.964-5.848-6.481-6.518-12.213C150.906,329.666,152.717,320.656,157.402,311.93z"/>
</g>
<g>
</g>
<g>
</g>
<g>
</g>
<g>
</g>
<g>
</g>
<g>
</g>
<g>
</g>
<g>
</g>
<g>
</g>
<g>
</g>
<g>
</g>
<g>
</g>
<g>
</g>
<g>
</g>
<g>
</g>
</svg>
